<svg width="147" height="124" viewBox="0 0 147 124" fill="none" xmlns="http://www.w3.org/2000/svg">
<path id="Vector" d="M111.067 0C92.2833 0 76.93 14.3579 75.2967 32.6316H13.0667C5.88 32.6316 0 38.5053 0 45.6842V110.947C0 118.126 5.88 124 13.0667 124H120.867C128.053 124 133.933 118.126 133.933 110.947V63.6316C141.937 57.1053 147 47.1526 147 35.8947C147 16.1526 130.83 0 111.067 0ZM13.0667 39.1579H75.2967C76.2767 50.4158 82.4833 60.0421 91.4667 65.9158L69.09 85.1684C67.7833 86.3105 65.9867 86.3105 64.8433 85.1684L11.76 39.321C12.0867 39.1579 12.5767 39.1579 13.0667 39.1579ZM6.53333 110.947V45.6842C6.53333 45.0316 6.69667 44.3789 6.86 43.7263L46.8767 78.3158L6.86 112.905C6.69667 112.253 6.53333 111.6 6.53333 110.947ZM120.867 117.474H13.0667C12.5767 117.474 12.0867 117.474 11.76 117.311L51.94 82.5579L60.5967 90.0631C62.3933 91.6947 64.68 92.5105 66.9667 92.5105C69.2533 92.5105 71.54 91.6947 73.3367 90.0631L81.9933 82.5579L122.173 117.311C121.847 117.474 121.357 117.474 120.867 117.474ZM127.4 110.947C127.4 111.6 127.237 112.253 127.073 112.905L87.0567 78.3158L97.6733 69.1789C101.757 70.8105 106.33 71.7895 111.067 71.7895C116.947 71.7895 122.5 70.3211 127.4 67.8737V110.947ZM111.067 65.2632C94.8967 65.2632 81.6667 52.0474 81.6667 35.8947C81.6667 19.7421 94.8967 6.52632 111.067 6.52632C127.237 6.52632 140.467 19.7421 140.467 35.8947C140.467 52.0474 127.237 65.2632 111.067 65.2632ZM127.237 23.1684C128.543 24.4737 128.543 26.4316 127.237 27.7368L106.493 48.6211C105.84 49.2737 105.023 49.6 104.207 49.6C103.39 49.6 102.573 49.2737 101.92 48.6211L95.06 41.7684C93.7533 40.4632 93.7533 38.5053 95.06 37.2C96.3667 35.8947 98.49 35.8947 99.6333 37.2L104.207 41.7684L122.663 23.3316C123.807 21.8632 125.93 21.8632 127.237 23.1684Z" fill="white"/>
</svg>
